<svg id="Layer_1" data-name="Layer 1" xmlns="http://www.w3.org/2000/svg" viewBox="0 0 100 100"><defs><style>.cls-1{fill:#a5a5a6;}</style></defs><title>Icon</title><path class="cls-1" d="M72.4,60.65l-6.63-6.53a6.3,6.3,0,0,0-4.6-2.06,6.52,6.52,0,0,0-4.61,2.09l-3.37,3.42-.46-.22a9.86,9.86,0,0,1-1.12-.61A40.38,40.38,0,0,1,41.86,48a23.62,23.62,0,0,1-3-4.47c.85-.82,1.66-1.64,2.41-2.42.33-.35.67-.69,1-1a6.62,6.62,0,0,0,2.08-4.68,6.5,6.5,0,0,0-2.14-4.64L39,27.5l-1.11-1.13c-.73-.73-1.5-1.51-2.26-2.2a6.44,6.44,0,0,0-4.58-2,6.69,6.69,0,0,0-4.6,2l-4.08,4.14a9.45,9.45,0,0,0-2.76,6,21.2,21.2,0,0,0,1.64,9.2,52,52,0,0,0,9.4,15.46A57.07,57.07,0,0,0,49.73,73.86,30,30,0,0,0,60.63,77l.76,0h0a9.58,9.58,0,0,0,7.4-3.23l.14-.15,0,0a22.56,22.56,0,0,1,1.8-1.89l.17-.17c.52-.5,1-1,1.57-1.58A6.31,6.31,0,0,0,72.4,60.65Zm-4.75,7.56-.13.13c-.75.73-1.5,1.48-2.19,2.3a5.05,5.05,0,0,1-4,1.71l-.51,0a25.28,25.28,0,0,1-9.1-2.68A52.15,52.15,0,0,1,34.2,56.08,47.69,47.69,0,0,1,25.6,42a16.75,16.75,0,0,1-1.37-7.2,4.78,4.78,0,0,1,1.43-3.13l4.05-4.1A1.94,1.94,0,0,1,31,26.91a2,2,0,0,1,1.3.67c.64.58,1.23,1.18,1.85,1.81l1.46,1.47,3.3,3.25a2.1,2.1,0,0,1,.74,1.33A2.14,2.14,0,0,1,39,36.8l-1.24,1.27c-.93,1-1.79,1.83-2.74,2.69l-.1.09a3.15,3.15,0,0,0-.76,3.47l0,.15A26.71,26.71,0,0,0,38.21,51a44.54,44.54,0,0,0,10.88,9.77,11.31,11.31,0,0,0,1.3.72l.25.13c.4.19.8.39,1.13.59l.2.12a3.31,3.31,0,0,0,1.52.37,3.23,3.23,0,0,0,2.33-1l4.08-4.13a2,2,0,0,1,1.31-.7,1.89,1.89,0,0,1,1.23.67L69.11,64c.94.93.94,1.72,0,2.75C68.62,67.25,68.16,67.71,67.65,68.21Z"/></svg>