<svg id="Layer_1" data-name="Layer 1" xmlns="http://www.w3.org/2000/svg" viewBox="0 0 100 100"><defs><style>.cls-1{fill:#a5a5a6;}</style></defs><title>Icon</title><path class="cls-1" d="M49.55,25.45A27.28,27.28,0,1,0,76.82,52.73,27.29,27.29,0,0,0,49.55,25.45ZM36.1,69.85C37.27,67.4,44.42,65,49.55,65S61.85,67.4,63,69.85a21.58,21.58,0,0,1-26.89,0ZM66.89,65.9c-3.9-4.75-13.36-6.35-17.34-6.35S36.1,61.15,32.2,65.9a21.82,21.82,0,1,1,34.69,0ZM49.55,36.36a9.55,9.55,0,1,0,9.54,9.55A9.52,9.52,0,0,0,49.55,36.36Zm0,13.64a4.09,4.09,0,1,1,4.09-4.09A4.09,4.09,0,0,1,49.55,50Z"/></svg>