<svg id="Layer_1" data-name="Layer 1" xmlns="http://www.w3.org/2000/svg" viewBox="0 0 100 100"><defs><style>.cls-1{fill:#a5a5a6;}</style></defs><title>Icon</title><path class="cls-1" d="M50,33.64a26.64,26.64,0,0,1,24,15,26.28,26.28,0,0,1-6.57,8.51L71.33,61A32.12,32.12,0,0,0,80,48.64a32.25,32.25,0,0,0-39.93-18.9l4.5,4.5A27.29,27.29,0,0,1,50,33.64Zm-2.92,3.11,5.65,5.64a6.83,6.83,0,0,1,3.49,3.49l5.64,5.65a12.69,12.69,0,0,0,.39-2.92A12.24,12.24,0,0,0,50,36.36,11.42,11.42,0,0,0,47.08,36.75ZM22.75,27.83l7.31,7.31A32,32,0,0,0,20,48.64,32.25,32.25,0,0,0,50,69.09a31.85,31.85,0,0,0,11.78-2.24l9.33,9.33L75,72.34,26.6,24ZM43.21,48.28l7.12,7.12a1.26,1.26,0,0,1-.33.05,6.82,6.82,0,0,1-6.82-6.81C43.18,48.5,43.21,48.42,43.21,48.28ZM33.94,39l4.77,4.77a12.52,12.52,0,0,0-1,4.86A12.29,12.29,0,0,0,50,60.91a12.47,12.47,0,0,0,4.83-1L57.5,62.6a28.65,28.65,0,0,1-7.5,1,26.64,26.64,0,0,1-24-15A26.93,26.93,0,0,1,33.94,39Z"/></svg>