<svg id="Layer_1" data-name="Layer 1" xmlns="http://www.w3.org/2000/svg" viewBox="0 0 100 100"><defs><style>.cls-1{fill:#a5a5a6;}</style></defs><title>Icon</title><path class="cls-1" d="M66.36,39.09H63.64V33.64a13.64,13.64,0,0,0-27.28,0v5.45H33.64a5.48,5.48,0,0,0-5.46,5.46V71.82a5.47,5.47,0,0,0,5.46,5.45H66.36a5.47,5.47,0,0,0,5.46-5.45V44.55A5.48,5.48,0,0,0,66.36,39.09ZM41.82,33.64a8.18,8.18,0,1,1,16.36,0v5.45H41.82ZM66.36,71.82H33.64V44.55H66.36ZM50,63.64a5.46,5.46,0,1,0-5.45-5.46A5.47,5.47,0,0,0,50,63.64Z"/></svg>